<?xml version="1.0" encoding="utf-8"?>
<!-- Generator: Adobe Illustrator 19.0.0, SVG Export Plug-In . SVG Version: 6.00 Build 0)  -->
<svg version="1.1" id="Layer_1" xmlns="http://www.w3.org/2000/svg" xmlns:xlink="http://www.w3.org/1999/xlink" x="0px" y="0px"
	 width="208.3px" height="48.7px" viewBox="0 0 208.3 48.7" style="enable-background:new 0 0 208.3 48.7;" xml:space="preserve">
<style type="text/css">
	.st0{fill:#6E6F71;}
	.st1{fill:#CF0A2C;}
</style>
<g id="XMLID_1_">
	<g id="XMLID_2_">
		<path id="XMLID_3_" class="st0" d="M104,36.1v-1c0-2.2-0.8-2.3-4-2.3c-3.6,0-4.2,0.6-4.2,4.2v4.1c0,3.7,0.5,4.4,4.2,4.4
			c2.9,0,4.2-0.1,4.2-2.8v-1h3.6V43c0.1,5.6-3.1,5.4-7.7,5.6c-6.6,0.2-7.7-1.9-7.8-7.3V37c0-6,2.3-7.3,7.8-7.3c4.6,0,7.3,0,7.5,5.4
			v1H104z"/>
		<path id="XMLID_4_" class="st0" d="M125.4,36.5v5c0,6-2.3,7.1-7.9,7.1c-5.8,0-7.9-1-7.9-7.1v-5c0-5.8,2-6.8,7.9-6.8
			C122.8,29.7,125.4,30.5,125.4,36.5z M113.1,36.5v5c0,3.7,0.7,4,4.3,4c3.3,0,4.4-0.4,4.4-4v-5c0.1-3.5-1.2-3.7-4.4-3.7
			C113.6,32.8,113.2,33.6,113.1,36.5z"/>
		<path id="XMLID_5_" class="st0" d="M140.4,48.5h-3.2l-5.9-15.6h-0.1l0.3,15.6H128V29.9h5.7l5.1,13.8h0.1l5-13.8h5.9v18.6h-3.6
			l0.3-15.7h-0.1L140.4,48.5z"/>
		<path id="XMLID_6_" class="st0" d="M168.4,29.9l-6,18.6H157l-6-18.6h3.6l5,15.6h0.1l5-15.6H168.4z"/>
		<path id="XMLID_7_" class="st0" d="M173.6,48.5H170V29.9h3.6V48.5z"/>
		<path id="XMLID_8_" class="st0" d="M192.6,29.9l-6,18.6h-5.4l-6-18.6h3.6l5,15.6h0.1l5-15.6H192.6z"/>
		<path id="XMLID_9_" class="st0" d="M195.5,45l-1.2,3.5h-3.7l6.2-18.6h5.3l6.3,18.6h-3.6l-1.2-3.5H195.5z M199.5,32.6L199.5,32.6
			l-3.2,9.7h6.4L199.5,32.6z"/>
	</g>
	<g id="XMLID_10_">
		<path id="XMLID_36_" class="st1" d="M61.8,6.8H46.2c-0.8,0-1.5,0.4-1.9,1l-2.6,3.9h15.7c1,0.1,1.8,0.9,1.8,1.9c0,0,0,7.4,0,7.4
			H47.4c0,0,0-2.1,0-2.1c0,0,0,0,0,0c0-0.4,0.3-0.8,0.8-0.8h8.2v-2.7c0-0.7-0.4-1-1-1H44c-1.4,0-2.5,1.1-2.5,2.5v6.7
			c0,0,0,0.1,0,0.1c0.2,1,1,1.8,2.1,1.8h22.3V10.8C65.8,8.6,64,6.8,61.8,6.8"/>
		<path id="XMLID_35_" class="st1" d="M204,6.8h-15.6c-0.8,0-1.5,0.4-1.9,1l-2.6,3.9h15.7c1,0.1,1.8,0.9,1.8,1.9c0,0,0,7.4,0,7.4
			h-11.8c0,0,0-2.1,0-2.1c0,0,0,0,0,0c0-0.4,0.3-0.8,0.8-0.8h8.2v-2.7c0-0.7-0.4-1-1-1h-11.4c-1.4,0-2.5,1.1-2.5,2.5v6.7
			c0,0,0,0.1,0,0.1c0.2,1,1,1.8,2.1,1.8H208V10.8C208,8.6,206.3,6.8,204,6.8"/>
		<path id="XMLID_34_" class="st1" d="M154.9,0v6.8v13.9h-9.8c-0.7,0-1.2-0.6-1.2-1.1v-6.1h0v0c0-1.1,0.8-1.9,1.9-1.9h5
			c0.7,0,1.5-0.4,1.8-0.9l2.3-3.9c0,0-13.7,0-13.7,0c-2.2,0-4,1.8-4,4c0,0,0,0,0,0c0,0,0,10.4,0,11.2c0,2.1,1.7,3.3,3.3,3.3h21.2V0
			H154.9z"/>
		<path id="XMLID_33_" class="st1" d="M168.9,6.8c-1.7,0-2.8,1.3-2.8,2.7v15.9h6.8V13.5c0-1.1,0.8-1.9,1.8-1.9h5
			c0.7,0,1.4-0.5,1.8-1c0,0,2.6-3.8,2.6-3.8H168.9z"/>
		<path id="XMLID_11_" class="st1" d="M98.4,0h6.8v4.7l-6.8,4.5V0z M98.4,12.8v12.5h6.8V14.1V7c0,0-3.1,2-5.3,3.3
			C98.9,10.9,98.4,11.8,98.4,12.8"/>
		<path id="XMLID_30_" class="st1" d="M32.5,0H0v25.3h6.7V5.9H14c0.7,0,1.2,0.6,1.2,1.3h0l0,18.1h6.8V7.2c0-0.7,0.6-1.3,1.3-1.3
			c0,0,0,0,0,0h5.3l0,0c1,0,1.9,0.8,1.9,1.9h0v17.6h6.7V4.7C37.1,2.1,35.1,0,32.5,0"/>
		<path id="XMLID_29_" class="st1" d="M128.8,6.8c-0.1,0-19.2,0-19.2,0v18.6h6.8V11.6h7.7c1.1,0,1.9,0.8,1.9,1.9l0,0c0,0,0,0,0,0
			v11.9h6.8V10.8C132.8,8.6,131,6.8,128.8,6.8"/>
		<path id="XMLID_12_" class="st1" d="M70,0h6.8v25.3H70V0z M93.9,10.8c0-2.2-1.8-4-4-4c0,0-0.1,0-0.1,0H81c-0.8,0-1.2,0.4-1.6,1
			c0,0-2.7,3.8-2.7,3.8s8.6,0,8.6,0c1,0,1.8,0.9,1.8,1.9c0,0,0,11.8,0,11.8h6.8C93.9,25.3,93.9,10.8,93.9,10.8
			C93.9,10.8,93.9,10.8,93.9,10.8"/>
	</g>
</g>
</svg>
