<?xml version="1.0" encoding="UTF-8"?>
<svg width="16px" height="16px" viewBox="0 0 16 16" version="1.1" xmlns="http://www.w3.org/2000/svg" xmlns:xlink="http://www.w3.org/1999/xlink">
    <!-- Generator: Sketch 49.3 (51167) - http://www.bohemiancoding.com/sketch -->
    <title>Upload icon</title>
    <desc>Created with Sketch.</desc>
    <defs></defs>
    <g id="Upload-icon" stroke="none" stroke-width="1" fill="none" fill-rule="evenodd">
        <path d="M8,1 L4,4.90368 L6.53846154,4.90368 L6.53846154,9 L9.46153846,9 L9.46153846,4.90368 L12,4.90368 L8,1 Z M15.4716955,9.97307895 L12.9248076,8 L11.3542428,8 L14.0745712,10.4026579 L11.2388824,10.4026579 C11.1576022,10.4026579 11.083842,10.4501842 11.0473618,10.5249737 L10.3935998,12.5837105 L5.6060651,12.5837105 L4.95230309,10.5249737 C4.91598297,10.4501842 4.84206275,10.4026579 4.7607825,10.4026579 L1.92509377,10.4026579 L4.64574214,8 L3.07485731,8 L0.528289473,9.97307895 C0.149248307,10.2337368 -0.0773123905,10.8344474 0.0242879222,11.3078684 L0.473409304,14.139 C0.575169617,14.6124211 1.025731,15 1.47453238,15 L14.5254525,15 C14.9742539,15 15.4248153,14.6124211 15.5267356,14.139 L15.975537,11.3078684 C16.0776173,10.8344474 15.8507366,10.2337368 15.4716955,9.97307895 Z" id="Shape" fill="#A6A8AB" fill-rule="nonzero"></path>
    </g>
</svg>